# File created by Blade
# Date/Time:  Thu Sep 25 17:14:50 2014
# Frame Rate: 120.000 fps
#------------------------------------------------------
:FULLY-SPECIFIED
:DEGREES
243
root 37.821389 32.410022 -2.432889 182.163402 -80.570452 -161.916927
Spine -6.045536 11.510202 4.156423
Head -7.682356 -0.664226 0.957856
LeftShoulder -12.412183 23.454593 10.300567
LeftArm 27.079237 21.034935 -68.808589
LeftForeArm -2.023791 0.000000 16.445987
LeftHand -22.805073 -0.000000 -12.355021
LeftHandThumb1 -26.253704 0.000000 33.147579
RightShoulder -15.952644 11.423938 -27.675711
RightArm -9.847206 -10.450694 85.112309
RightForeArm -7.502146 -0.000000 23.503197
RightHand -2.781834 0.000000 3.903517
RightHandThumb1 -24.326973 -0.000000 -32.862282
LeftUpLeg -46.481877 7.038439 1.621167
LeftLeg 21.142481 -0.000000 -0.000000
LeftFoot -0.102132 15.053054 -17.564959
LeftToeBase -10.121631 -0.000000 0.000000
RightUpLeg -15.759456 -4.740434 2.540168
RightLeg 18.507207 -0.000000 -0.000000
RightFoot -21.274276 -11.156346 -7.691442
RightToeBase -4.229343 -0.000000 0.000000
244
root 38.102522 32.464665 -2.480129 181.339051 -81.084218 -161.205698
Spine -5.802917 11.220370 4.217523
Head -7.887725 -0.962278 1.236737
LeftShoulder -12.291005 23.429400 10.588247
LeftArm 26.915992 20.023893 -68.856375
LeftForeArm -2.348557 -0.000000 16.032439
LeftHand -22.742769 0.000000 -12.793820
LeftHandThumb1 -26.253704 0.000000 33.147579
RightShoulder -16.116123 11.266427 -27.622998
RightArm -9.965388 -9.366394 84.271720
RightForeArm -7.289933 -0.000000 23.309909
RightHand -3.030859 -0.000000 3.176647
RightHandThumb1 -24.326973 -0.000000 -32.862282
LeftUpLeg -46.762728 7.219744 1.412697
LeftLeg 23.882398 -0.000000 -0.000000
LeftFoot -2.576855 13.916554 -19.042812
LeftToeBase -9.722121 -0.000000 0.000000
RightUpLeg -16.124853 -4.870063 2.852133
RightLeg 18.514902 -0.000000 -0.000000
RightFoot -20.857599 -11.569652 -7.678967
RightToeBase -4.101377 -0.000000 0.000000
245
root 38.374977 32.520605 -2.516157 180.915876 -81.578156 -160.893493
Spine -5.613575 10.995726 4.179505
Head -8.013366 -1.360274 1.515199
LeftShoulder -12.175414 23.433848 10.922441
LeftArm 26.827242 19.004460 -68.881844
LeftForeArm -2.558582 0.000000 15.614959
LeftHand -22.566042 -0.000000 -13.343607
LeftHandThumb1 -26.253704 0.000000 33.147579
RightShoulder -16.271603 11.125252 -27.577035
RightArm -10.178226 -8.099654 83.339547
RightForeArm -6.855509 0.000000 22.967995
RightHand -2.888402 -0.000000 3.022060
RightHandThumb1 -24.326973 -0.000000 -32.862282
LeftUpLeg -46.932813 7.363600 1.147561
LeftLeg 26.645586 -0.000000 -0.000000
LeftFoot -5.006312 13.169185 -20.659814
LeftToeBase -10.079470 -0.000000 0.000000
RightUpLeg -16.517640 -4.668650 2.992753
RightLeg 18.660978 -0.000000 -0.000000
RightFoot -20.417742 -12.041613 -7.561678
RightToeBase -4.445339 -0.000000 0.000000
246
root 38.639186 32.578820 -2.556747 180.443437 -82.020429 -160.512855
Spine -5.486498 10.765943 4.124135
Head -8.109794 -1.678259 1.814440
LeftShoulder -12.133009 23.462334 11.191899
LeftArm 26.681285 17.842445 -68.802270
LeftForeArm -3.189903 0.000000 15.259657
LeftHand -22.627064 -0.000000 -13.909654
LeftHandThumb1 -26.253704 0.000000 33.147579
RightShoulder -16.452830 11.016740 -27.544625
RightArm -10.383998 -7.055653 82.491602
RightForeArm -6.029266 0.000000 22.720483
RightHand -3.557442 -0.000000 2.062037
RightHandThumb1 -24.326973 -0.000000 -32.862282
LeftUpLeg -47.031721 7.606148 0.877204
LeftLeg 29.386321 -0.000000 -0.000000
LeftFoot -7.246188 12.271759 -21.916413
LeftToeBase -8.819214 -0.000000 0.000000
RightUpLeg -16.922267 -4.707729 3.168386
RightLeg 18.771577 -0.000000 -0.000000
RightFoot -19.961116 -12.285178 -7.535148
RightToeBase -4.463340 -0.000000 0.000000
247
root 38.896365 32.635685 -2.592722 180.299059 -82.400582 -160.486551
Spine -5.362524 10.605965 4.000247
Head -8.142246 -2.038178 2.106417
LeftShoulder -12.084880 23.477303 11.490364
LeftArm 26.489373 16.581867 -68.735717
LeftForeArm -3.393822 -0.000000 15.043423
LeftHand -22.513667 -0.000000 -14.602295
LeftHandThumb1 -26.253704 0.000000 33.147579
RightShoulder -16.547857 10.933551 -27.528460
RightArm -10.740701 -5.791737 81.565202
RightForeArm -6.134711 -0.000000 22.402859
RightHand -3.811916 -0.000000 1.758388
RightHandThumb1 -24.326973 -0.000000 -32.862282
LeftUpLeg -47.002848 7.884227 0.535481
LeftLeg 32.034846 -0.000000 -0.000000
LeftFoot -9.181062 11.789951 -22.603574
LeftToeBase -8.660493 -0.000000 0.000000
RightUpLeg -17.320347 -4.710962 3.272660
RightLeg 18.916823 -0.000000 -0.000000
RightFoot -19.538373 -12.525347 -7.534027
RightToeBase -4.282201 -0.000000 0.000000
248
root 39.141382 32.695088 -2.620956 180.652409 -82.739845 -160.983229
Spine -5.172656 10.454159 3.801879
Head -7.508484 -2.377465 2.107134
LeftShoulder -12.227683 23.461870 11.645481
LeftArm 26.405104 15.359681 -68.431013
LeftForeArm -3.567136 -0.000000 14.622592
LeftHand -21.780945 -0.000000 -15.377497
LeftHandThumb1 -26.253704 0.000000 33.147579
RightShoulder -16.784884 10.928293 -27.505058
RightArm -11.089216 -4.671807 80.583699
RightForeArm -5.835068 -0.000000 22.041078
RightHand -3.627465 -0.000000 1.783913
RightHandThumb1 -24.326973 -0.000000 -32.862282
LeftUpLeg -46.818978 8.147794 0.195770
LeftLeg 34.607274 -0.000000 -0.000000
LeftFoot -10.734927 11.379841 -23.020520
LeftToeBase -8.841236 -0.000000 0.000000
RightUpLeg -17.650296 -4.667775 3.267810
RightLeg 18.993944 -0.000000 -0.000000
RightFoot -19.097342 -12.650349 -7.385161
RightToeBase -4.272036 -0.000000 0.000000
249
root 39.383536 32.752517 -2.649855 181.165491 -83.035555 -161.611886
Spine -5.048765 10.349078 3.562459
Head -6.894414 -2.734194 2.165277
LeftShoulder -12.365020 23.485800 11.870375
LeftArm 26.416914 14.401648 -68.014005
LeftForeArm -4.863110 -0.000000 14.598627
LeftHand -23.013928 -0.000000 -14.717815
LeftHandThumb1 -26.253704 0.000000 33.147579
RightShoulder -17.030214 10.895020 -27.455919
RightArm -11.418046 -3.482767 79.569131
RightForeArm -5.291032 -0.000000 21.703796
RightHand -3.695429 -0.000000 1.473955
RightHandThumb1 -24.326973 -0.000000 -32.862282
LeftUpLeg -46.582464 8.383410 -0.081580
LeftLeg 37.101565 -0.000000 -0.000000
LeftFoot -11.975170 11.004928 -23.561262
LeftToeBase -9.276070 -0.000000 0.000000
RightUpLeg -18.000180 -4.546188 3.238991
RightLeg 19.054791 -0.000000 -0.000000
RightFoot -18.644124 -12.823631 -7.322428
RightToeBase -4.232261 -0.000000 0.000000
250
root 39.618380 32.805697 -2.671003 182.009124 -83.315866 -162.549764
Spine -4.994028 10.225882 3.309696
Head -6.303095 -3.072511 2.177080
LeftShoulder -12.526412 23.445748 12.009514
LeftArm 26.241438 13.112092 -67.587339
LeftForeArm -5.275947 -0.000000 14.401047
LeftHand -22.679431 0.000000 -15.477980
LeftHandThumb1 -26.253704 0.000000 33.147579
RightShoulder -17.257945 10.885944 -27.455008
RightArm -11.794118 -2.338883 78.509036
RightForeArm -4.752543 0.000000 21.334833
RightHand -3.728392 -0.000000 1.200495
RightHandThumb1 -24.326973 -0.000000 -32.862282
LeftUpLeg -46.303778 8.598370 -0.398251
LeftLeg 39.476243 -0.000000 -0.000000
LeftFoot -12.707820 11.040268 -23.490012
LeftToeBase -9.680483 -0.000000 0.000000
RightUpLeg -18.333109 -4.479254 3.156341
RightLeg 19.057064 -0.000000 -0.000000
RightFoot -18.213985 -12.870670 -7.295467
RightToeBase -4.237205 -0.000000 0.000000
251
root 39.847545 32.852876 -2.687222 183.146108 -83.582377 -163.795322
Spine -4.956725 10.103961 3.042201
Head -5.704022 -3.355999 2.190388
LeftShoulder -12.697298 23.414165 12.159378
LeftArm 26.081771 11.947057 -67.061873
LeftForeArm -5.961125 0.000000 14.275273
LeftHand -22.707511 -0.000000 -15.575717
LeftHandThumb1 -26.253704 0.000000 33.147579
RightShoulder -17.471985 10.841709 -27.484430
RightArm -12.172425 -1.050145 77.407438
RightForeArm -4.315215 -0.000000 20.999432
RightHand -3.668937 -0.000000 0.944870
RightHandThumb1 -24.326973 -0.000000 -32.862282
LeftUpLeg -45.900246 8.700636 -0.649555
LeftLeg 41.733182 -0.000000 -0.000000
LeftFoot -13.332613 11.161290 -24.111109
LeftToeBase -9.602123 -0.000000 0.000000
RightUpLeg -18.654283 -4.396715 3.031306
RightLeg 19.093816 -0.000000 -0.000000
RightFoot -17.887020 -12.919771 -7.202195
RightToeBase -4.119604 -0.000000 0.000000
252
root 40.070067 32.893916 -2.704219 183.902452 -83.815125 -164.692025
Spine -4.906881 9.987745 2.862533
Head -5.144551 -3.636489 2.129763
LeftShoulder -12.964232 23.618074 12.177346
LeftArm 26.210058 10.628069 -66.418485
LeftForeArm -6.826413 -0.000000 14.031430
LeftHand -22.555409 -0.000000 -15.648725
LeftHandThumb1 -26.253704 0.000000 33.147579
RightShoulder -17.683342 10.824365 -27.562645
RightArm -12.556035 0.289327 76.254844
RightForeArm -3.811025 0.000000 20.622325
RightHand -3.772708 -0.000000 0.340796
RightHandThumb1 -24.326973 -0.000000 -32.862282
LeftUpLeg -45.391262 8.748908 -0.744961
LeftLeg 44.011295 -0.000000 -0.000000
LeftFoot -13.786689 11.396598 -24.341040
LeftToeBase -8.673415 -0.000000 0.000000
RightUpLeg -18.953195 -4.425915 2.983060
RightLeg 19.169479 -0.000000 -0.000000
RightFoot -17.601783 -12.864312 -7.018352
RightToeBase -4.041802 -0.000000 0.000000
253
root 40.287493 32.929065 -2.715977 184.870925 -84.023629 -165.789361
Spine -4.892477 9.888731 2.687891
Head -4.593982 -3.908626 2.016240
LeftShoulder -13.173077 23.672913 12.229339
LeftArm 26.102674 9.241915 -65.812054
LeftForeArm -7.334027 -0.000000 13.913246
LeftHand -22.572123 -0.000000 -15.840860
LeftHandThumb1 -26.253704 0.000000 33.147579
RightShoulder -17.854264 10.812153 -27.667463
RightArm -13.020719 1.669690 75.062792
RightForeArm -2.899535 -0.000000 20.410039
RightHand -3.945323 -0.000000 -0.554581
RightHandThumb1 -24.326973 -0.000000 -32.862282
LeftUpLeg -44.808563 8.833245 -0.877899
LeftLeg 46.075007 -0.000000 -0.000000
LeftFoot -14.274115 11.303439 -25.183182
LeftToeBase -7.815235 -0.000000 0.000000
RightUpLeg -19.196864 -4.329597 2.874515
RightLeg 19.154377 -0.000000 -0.000000
RightFoot -17.329126 -12.916129 -6.960932
RightToeBase -3.945194 -0.000000 0.000000
254
root 40.496691 32.959432 -2.727346 185.714577 -84.187828 -166.777769
Spine -4.871167 9.825061 2.544732
Head -4.111257 -4.160299 1.891879
LeftShoulder -13.467236 23.784034 12.193845
LeftArm 26.119461 7.764693 -65.114932
LeftForeArm -8.000487 -0.000000 13.641780
LeftHand -21.948680 0.000000 -16.272746
LeftHandThumb1 -26.253704 0.000000 33.147579
RightShoulder -18.064382 10.859947 -27.810517
RightArm -13.533644 3.037893 73.794236
RightForeArm -2.193360 -0.000000 20.227988
RightHand -4.094713 0.000000 -1.349120
RightHandThumb1 -24.326973 -0.000000 -32.862282
LeftUpLeg -44.103651 8.926182 -0.976113
LeftLeg 48.020994 -0.000000 -0.000000
LeftFoot -14.820860 11.534082 -25.621125
LeftToeBase -7.265747 -0.000000 0.000000
RightUpLeg -19.388570 -4.207012 2.796343
RightLeg 19.094988 -0.000000 -0.000000
RightFoot -17.071970 -13.015801 -6.839096
RightToeBase -3.807975 -0.000000 0.000000
255
root 40.698115 32.982098 -2.736396 186.153118 -84.337628 -167.385080
Spine -4.864924 9.773695 2.479526
Head -3.601589 -4.424830 1.729211
LeftShoulder -13.745331 23.953092 12.164941
LeftArm 26.143461 6.227859 -64.464830
LeftForeArm -8.590960 -0.000000 13.515859
LeftHand -22.005905 0.000000 -16.005200
LeftHandThumb1 -26.253704 0.000000 33.147579
RightShoulder -18.220846 10.798445 -27.956082
RightArm -13.993073 4.456635 72.448423
RightForeArm -1.453790 -0.000000 20.107650
RightHand -4.075474 -0.000000 -1.876436
RightHandThumb1 -24.326973 -0.000000 -32.862282
LeftUpLeg -43.286019 9.014895 -1.014451
LeftLeg 49.783801 -0.000000 -0.000000
LeftFoot -15.286384 11.457121 -25.987344
LeftToeBase -7.248993 -0.000000 0.000000
RightUpLeg -19.548579 -4.116328 2.755207
RightLeg 19.056204 -0.000000 -0.000000
RightFoot -16.868621 -13.113335 -6.766818
RightToeBase -3.655279 -0.000000 0.000000
